<?xml version="1.0" ?><svg viewBox="0 0 426.1 371.97" xmlns="http://www.w3.org/2000/svg"><title/><g data-name="Layer 2" id="Layer_2"><g data-name="earthquake, disaster, quake, destruction, nature, building, vibration" id="earthquake_disaster_quake_destruction_nature_building_vibration"><path d="M60.3,169l-1,4.89a5.36,5.36,0,1,0,10.49,2.23l1-4.89A5.36,5.36,0,1,0,60.3,169Z"/><path d="M70.29,147.76a5.35,5.35,0,0,0,6.36-4.13L82,118.32H240L188.67,359.91H131.76l11.45-44.28a5.36,5.36,0,0,0-5.19-6.71H104a5.37,5.37,0,0,0-5.19,4l-12.15,47h-56l32.77-154.1a5.36,5.36,0,0,0-10.49-2.23L18.8,364.15A5.37,5.37,0,0,0,24,370.63H193a5.37,5.37,0,0,0,5.25-4.25l53.65-252.31a5.37,5.37,0,0,0-5.24-6.47h-169a5.36,5.36,0,0,0-5.24,4.24L66.17,141.4A5.36,5.36,0,0,0,70.29,147.76Zm50.39,212.15h-23l10.42-40.27h23Z"/><path d="M138,149.94H104a5.35,5.35,0,0,0-5.24,4.24l-7.32,34.44a5.34,5.34,0,0,0,5.24,6.47h34.05a5.37,5.37,0,0,0,5.25-4.24l7.32-34.44a5.37,5.37,0,0,0-5.25-6.47Zm-11.66,34.43H103.28l5-23.71h23.09Z"/><path d="M193.48,195.09a5.36,5.36,0,0,0,5.24-4.24L206,156.41a5.35,5.35,0,0,0-5.24-6.47H166.75a5.36,5.36,0,0,0-5.25,4.24l-7.32,34.44a5.35,5.35,0,0,0,5.24,6.47Zm-22.39-34.43h23.09l-5,23.71H166Z"/><path d="M85.36,216.8,78,251.23a5.37,5.37,0,0,0,5.24,6.48h34.06a5.36,5.36,0,0,0,5.24-4.25L129.9,219a5.36,5.36,0,0,0-5.24-6.48h-34A5.36,5.36,0,0,0,85.36,216.8ZM118,223.27,113,247H89.9l5-23.72Z"/><path d="M148.13,216.8l-7.32,34.43a5.36,5.36,0,0,0,5.24,6.48h34a5.37,5.37,0,0,0,5.25-4.25L192.67,219a5.37,5.37,0,0,0-5.25-6.48h-34A5.35,5.35,0,0,0,148.13,216.8Zm32.67,6.47-5,23.72H152.67l5-23.72Z"/><path d="M267.9,289.05a5.36,5.36,0,0,0,5.24-4.25l7.32-34.43a5.36,5.36,0,0,0-5.24-6.48H241.17a5.37,5.37,0,0,0-5.25,4.25l-7.32,34.43a5.37,5.37,0,0,0,5.24,6.48Zm-22.39-34.44H268.6l-5,23.72h-23.1Z"/><path d="M321.28,289.05a5.37,5.37,0,0,0,5.25-4.25l7.32-34.43a5.37,5.37,0,0,0-5.25-6.48H294.55a5.35,5.35,0,0,0-5.24,4.25L282,282.57a5.36,5.36,0,0,0,5.24,6.48Zm-22.39-34.44H322l-5,23.72H293.85Z"/><path d="M247,222.29a5.36,5.36,0,0,0,5.36,5.36h99.9l-28.4,133.6H280.61l11.81-45.62a5.36,5.36,0,0,0-5.19-6.71H253.17a5.38,5.38,0,0,0-5.19,4l-12.49,48.31H217.1a5.36,5.36,0,1,0,0,10.72H366a5.36,5.36,0,0,0,0-10.72H334.82l29.31-137.84a5.37,5.37,0,0,0-5.25-6.48H252.36A5.36,5.36,0,0,0,247,222.29Zm22.54,139h-23l10.76-41.61h23Z"/><path d="M33.49,195a5.35,5.35,0,0,0,6.36-4.13L64.64,74.26A5.36,5.36,0,1,0,54.15,72L29.36,188.62A5.37,5.37,0,0,0,33.49,195Z"/><path d="M4.25,212.89a5.35,5.35,0,0,0,6.36-4.13l19.64-92.38a5.36,5.36,0,1,0-10.49-2.23L.12,206.53A5.36,5.36,0,0,0,4.25,212.89Z"/><path d="M30.76,88.2a5.4,5.4,0,0,0,6.36-4.13l.4-1.89A5.36,5.36,0,1,0,27,80l-.41,1.89A5.37,5.37,0,0,0,30.76,88.2Z"/><path d="M392.61,192.45a5.35,5.35,0,0,0-6.35,4.13l-24.8,116.59A5.36,5.36,0,1,0,372,315.4l24.79-116.59A5.36,5.36,0,0,0,392.61,192.45Z"/><path d="M400,277.41a5.35,5.35,0,0,0,6.36-4.13L426,180.9a5.36,5.36,0,1,0-10.49-2.23l-19.64,92.38A5.36,5.36,0,0,0,400,277.41Z"/><path d="M389,303.36l-.41,1.89a5.36,5.36,0,1,0,10.49,2.23l.4-1.89A5.36,5.36,0,1,0,389,303.36Z"/><path d="M281.65,76.41A5.35,5.35,0,0,0,288,72.28l.55-2.57a5.36,5.36,0,1,0-10.49-2.23l-.55,2.57A5.37,5.37,0,0,0,281.65,76.41Z"/><path d="M260.62,175.33A5.35,5.35,0,0,0,267,171.2l14.21-66.85a5.36,5.36,0,1,0-10.48-2.23L256.49,169A5.36,5.36,0,0,0,260.62,175.33Z"/><path d="M281.65,203.47a5.35,5.35,0,0,0,6.36-4.12L307.65,107a5.36,5.36,0,1,0-10.48-2.23l-19.65,92.38A5.36,5.36,0,0,0,281.65,203.47Z"/><path d="M356.63,107.65a12.11,12.11,0,0,0,3.12.41,11.37,11.37,0,0,0,10.61-7.26L399.3,30.12a21.84,21.84,0,1,0-41.89-11L348,95A11.41,11.41,0,0,0,356.63,107.65Zm2-11.37,9.39-75.81a11.14,11.14,0,0,1,11-9.75,11.3,11.3,0,0,1,2.82.36,11.12,11.12,0,0,1,7.47,15L360.44,96.74c-.13.32-.31.75-1.09.54S358.62,96.61,358.66,96.28Z"/><path d="M344.77,153a18.81,18.81,0,0,0,23-13.43h0a18.8,18.8,0,1,0-23,13.44Zm-3.07-20.24a8.11,8.11,0,0,1,7.83-6,7.93,7.93,0,0,1,2,.26,8.08,8.08,0,1,1-9.87,5.78Z"/></g></g></svg>