<svg width="100" height="100" xmlns="http://www.w3.org/2000/svg">
 <title/>

 <g>
  <title>background</title>
  <rect fill="none" id="canvas_background" height="402" width="582" y="-1" x="-1"/>
 </g>
 <g>
  <title>Layer 1</title>
  <path id="svg_1" d="m63.3,30.22l-0.2,-0.09a22.53,22.53 0 0 1 -13.1,-25.13a33.77,33.77 0 0 0 -22.37,28.9q-0.09,1.09 -0.12,2.19c0,0.24 0,0.48 0,0.73a33.59,33.59 0 0 0 5.66,18.71a11.23,11.23 0 0 1 -12.69,-10.65a33.76,33.76 0 0 0 27.46,50.06a15.48,15.48 0 0 1 -9.19,-13.81c0,-0.11 0,-0.22 0,-0.33a15.46,15.46 0 0 1 9.37,-14.22l0.08,0l0,0a12.65,12.65 0 0 0 7.64,-11.61a15.49,15.49 0 0 1 8.16,12.27c0,0.34 0,0.68 0.05,1c0,0.11 0,0.22 0,0.33a15.39,15.39 0 0 1 -2.59,8.58l-1.25,1.85l2.25,0.29a7.12,7.12 0 0 0 0.9,0.06a7,7 0 0 0 5.71,-2.92a15.45,15.45 0 0 1 -3.34,14.65a33.75,33.75 0 0 0 18.01,-29.08c0,-0.24 0,-0.48 0,-0.73a33.76,33.76 0 0 0 -20.44,-31.05zm17.63,31.7a30.94,30.94 0 0 1 -8.52,20.65q0.09,-0.88 0.09,-1.78a18.31,18.31 0 0 0 -0.73,-5.11l-1.61,-5.55l-3.37,4.69a4.2,4.2 0 0 1 -1.54,1.31a18.22,18.22 0 0 0 1.63,-7.55c0,-0.13 0,-0.26 0,-0.39c0,-0.39 0,-0.79 -0.06,-1.19a18.21,18.21 0 0 0 -9.62,-14.56l-4.13,-2.2l0,4.68a9.86,9.86 0 0 1 -6,9l-0.07,0.08a18.27,18.27 0 0 0 -11.07,16.8c0,0.13 0,0.26 0,0.39a18.18,18.18 0 0 0 2.43,8.74a31,31 0 0 1 -18.06,-37.33a14,14 0 0 0 11.42,5.84a14.22,14.22 0 0 0 1.8,-0.12l4.5,-0.58l-2.52,-3.74a30.79,30.79 0 0 1 -5.19,-17.15c0,-0.22 0,-0.45 0,-0.67c0,-0.66 0.05,-1.34 0.11,-2a31,31 0 0 1 16.28,-24.67a25.31,25.31 0 0 0 15.3,23.21l0.06,0l0.15,0.06a30.92,30.92 0 0 1 18.73,28.47c0,0.22 -0.01,0.45 -0.01,0.67z"/>
 </g>
</svg>