<?xml version="1.0" ?><svg id="Layer_1" style="enable-background:new 0 0 64 64;" version="1.1" viewBox="0 0 64 64" xml:space="preserve" xmlns="http://www.w3.org/2000/svg" xmlns:xlink="http://www.w3.org/1999/xlink"><g><path d="M22.7,60.2c1.1,0.2,2.3,0.3,3.4,0.3c0.4,0,0.8,0,1.1,0c4.2-0.2,8-2,10.9-5c0.4,0,0.7,0,1.1,0c6.2-0.4,11.6-4,14.3-9.8   c2.7-5.9,2.1-12.8-1.8-17.9l-14.1-19L30,19.6l-4.3-5.8L12,33.1C8.5,38.1,7.8,44.3,10.1,50C12.3,55.4,17,59.2,22.7,60.2z M37.7,12.2   L50.2,29c3.4,4.6,4,10.7,1.6,15.9c-2.3,4.8-6.6,8-11.8,8.6c0.1-0.1,0.2-0.3,0.3-0.4c0.1-0.2,0.2-0.3,0.3-0.5   c0.2-0.2,0.3-0.5,0.4-0.7c0.1-0.2,0.2-0.4,0.3-0.5c0.1-0.3,0.3-0.5,0.4-0.8c0.1-0.2,0.2-0.4,0.2-0.5c0.1-0.3,0.2-0.6,0.3-0.9   c0.1-0.2,0.1-0.3,0.2-0.5c0.1-0.4,0.3-0.9,0.4-1.3c0-0.1,0-0.1,0-0.2c0.1-0.4,0.2-0.8,0.2-1.2c0-0.2,0-0.4,0.1-0.5   c0-0.3,0.1-0.6,0.1-0.9c0-0.2,0-0.4,0-0.6c0-0.3,0-0.6,0-0.8c0-0.2,0-0.4,0-0.6c0-0.3,0-0.5-0.1-0.8c0-0.2,0-0.4-0.1-0.6   c0-0.3-0.1-0.5-0.1-0.8c0-0.2-0.1-0.4-0.1-0.6c-0.1-0.3-0.1-0.5-0.2-0.8c-0.1-0.2-0.1-0.4-0.2-0.6c-0.1-0.3-0.2-0.5-0.3-0.8   c-0.1-0.2-0.1-0.4-0.2-0.6c-0.1-0.3-0.2-0.5-0.4-0.8c-0.1-0.2-0.2-0.4-0.3-0.5c-0.1-0.3-0.3-0.6-0.5-0.8c-0.1-0.1-0.2-0.3-0.3-0.4   c-0.3-0.4-0.5-0.8-0.8-1.2l-8.5-11.4L37.7,12.2z M13.6,34.3l12.1-17.1l3.5,4.7l9,12c5.1,6.8,3.3,15.1-1.1,19.9   c-2.6,2.8-6,4.4-9.9,4.7c-1.4,0.1-2.8,0-4.1-0.2c-5.1-0.9-9.1-4.2-11.1-9C9.9,44.2,10.5,38.7,13.6,34.3z"/></g></svg>